<mxfile host="app.diagrams.net" modified="2021-12-24T17:46:20.649Z" agent="5.0 (Macintosh; Intel Mac OS X 10_15_7) AppleWebKit/537.36 (KHTML, like Gecko) Chrome/96.0.4664.110 Safari/537.36" etag="BF14y0pRbE8vRgyyQKQr" version="15.9.3" type="github">
  <diagram id="GQXadRSxt_P2eG3wc91t" name="Page-1">
    <mxGraphModel dx="1351" dy="796" grid="1" gridSize="10" guides="1" tooltips="1" connect="1" arrows="1" fold="1" page="1" pageScale="1" pageWidth="827" pageHeight="1169" math="0" shadow="0">
      <root>
        <mxCell id="0" />
        <mxCell id="1" parent="0" />
        <mxCell id="KGo8pH8FPXHJ832XPiY9-11" style="edgeStyle=orthogonalEdgeStyle;rounded=0;orthogonalLoop=1;jettySize=auto;html=1;entryX=0.5;entryY=0;entryDx=0;entryDy=0;fontSize=12;fontColor=#080808;" edge="1" parent="1" source="QrJliiHwLaIzrrKKnuS_-1">
          <mxGeometry relative="1" as="geometry">
            <mxPoint x="378.9999999999998" y="80" as="targetPoint" />
          </mxGeometry>
        </mxCell>
        <mxCell id="QrJliiHwLaIzrrKKnuS_-1" value="" style="ellipse;whiteSpace=wrap;html=1;" parent="1" vertex="1">
          <mxGeometry x="344" width="70" height="50" as="geometry" />
        </mxCell>
        <mxCell id="KGo8pH8FPXHJ832XPiY9-69" style="edgeStyle=orthogonalEdgeStyle;rounded=0;orthogonalLoop=1;jettySize=auto;html=1;fontFamily=Courier New;fontSize=20;fontColor=#080808;" edge="1" parent="1" source="KGo8pH8FPXHJ832XPiY9-68">
          <mxGeometry relative="1" as="geometry">
            <mxPoint x="379" y="180" as="targetPoint" />
          </mxGeometry>
        </mxCell>
        <mxCell id="KGo8pH8FPXHJ832XPiY9-68" value="say覺1,say覺2" style="shape=parallelogram;perimeter=parallelogramPerimeter;whiteSpace=wrap;html=1;fixedSize=1;fontFamily=Courier New;fontSize=20;fontColor=#080808;" vertex="1" parent="1">
          <mxGeometry x="271" y="80" width="216" height="60" as="geometry" />
        </mxCell>
        <mxCell id="KGo8pH8FPXHJ832XPiY9-110" style="edgeStyle=orthogonalEdgeStyle;rounded=0;orthogonalLoop=1;jettySize=auto;html=1;fontFamily=Courier New;fontSize=17;fontColor=#080808;" edge="1" parent="1" source="KGo8pH8FPXHJ832XPiY9-108" target="KGo8pH8FPXHJ832XPiY9-111">
          <mxGeometry relative="1" as="geometry">
            <mxPoint x="384.5" y="330" as="targetPoint" />
          </mxGeometry>
        </mxCell>
        <mxCell id="KGo8pH8FPXHJ832XPiY9-108" value="sonuc=2*(say覺1*say覺2)" style="rounded=0;whiteSpace=wrap;html=1;fontFamily=Courier New;fontSize=17;fontColor=#080808;" vertex="1" parent="1">
          <mxGeometry x="319" y="180" width="131" height="80" as="geometry" />
        </mxCell>
        <mxCell id="KGo8pH8FPXHJ832XPiY9-111" value="sonuc" style="shape=document;whiteSpace=wrap;html=1;boundedLbl=1;fontFamily=Courier New;fontSize=17;fontColor=#080808;" vertex="1" parent="1">
          <mxGeometry x="324.5" y="320" width="120" height="80" as="geometry" />
        </mxCell>
      </root>
    </mxGraphModel>
  </diagram>
</mxfile>
